<svg xmlns="http://www.w3.org/2000/svg" width="16" height="16" viewBox="0 0 16 16">
    <path fill="#FFF" d="M11.627 3.127c-.362 0-.688.218-.826.552-.139.334-.062.718.194.974.255.256.64.332.974.194.334-.138.552-.464.552-.826 0-.494-.4-.894-.894-.894zm3.428 1.803c-.015-.618-.13-1.23-.343-1.81-.19-.498-.485-.948-.865-1.32-.369-.382-.82-.675-1.318-.857-.58-.219-1.192-.337-1.811-.35-.79-.045-1.043-.045-3.07-.045s-2.28 0-3.07.045c-.62.013-1.232.131-1.811.35-.498.184-.949.477-1.319.857-.382.37-.675.82-.857 1.32-.219.578-.337 1.19-.35 1.81C.196 5.72.196 5.973.196 8s0 2.28.045 3.07c.013.62.131 1.232.35 1.81.182.5.475.95.857 1.32.37.38.82.673 1.319.857.58.219 1.192.337 1.81.35.79.045 1.044.045 3.07.045 2.028 0 2.28 0 3.07-.045.62-.013 1.232-.131 1.812-.35.498-.182.95-.475 1.318-.857.382-.37.677-.821.865-1.32.212-.58.328-1.192.343-1.81 0-.79.044-1.043.044-3.07s0-2.28-.044-3.07zm-1.342 6.05c-.005.474-.09.942-.253 1.387-.119.324-.31.617-.559.857-.242.246-.534.437-.857.558-.444.163-.913.248-1.386.254-.745.037-1.02.045-2.98.045s-2.236 0-2.981-.045c-.491.009-.98-.067-1.446-.224-.308-.128-.587-.318-.82-.559-.247-.239-.435-.532-.55-.857-.183-.45-.284-.93-.299-1.415 0-.746-.045-1.021-.045-2.981s0-2.235.045-2.98c.003-.484.092-.963.26-1.416.132-.315.333-.595.59-.82.226-.256.506-.46.82-.596.453-.164.932-.25 1.415-.254.745 0 1.02-.044 2.98-.044s2.236 0 2.981.044c.473.006.942.091 1.386.254.339.125.643.33.887.596.244.229.435.509.559.82.166.453.251.932.253 1.415.038.746.045 1.021.045 2.981s-.007 2.235-.045 2.98zM7.648 4.178c-2.11.004-3.818 1.718-3.816 3.828.003 2.11 1.715 3.819 3.826 3.818 2.11-.002 3.82-1.713 3.82-3.823.002-1.016-.401-1.99-1.12-2.708-.72-.717-1.695-1.119-2.71-1.115zm0 6.304c-1.37 0-2.482-1.11-2.482-2.481 0-1.37 1.111-2.481 2.482-2.481 1.37 0 2.481 1.11 2.481 2.481 0 .658-.261 1.29-.727 1.755-.465.465-1.096.726-1.754.726z"/>
</svg>
