<svg xmlns="http://www.w3.org/2000/svg" width="27" height="23" viewBox="0 0 27 23">
    <path d="M27 2.723c-1.004.462-2.074.768-3.19.916 1.148-.718 2.024-1.847 2.436-3.207-1.07.668-2.251 1.14-3.51 1.404C21.72.702 20.272 0 18.692 0c-3.064 0-5.531 2.608-5.531 5.805 0 .46.037.902.128 1.323-4.602-.235-8.674-2.547-11.41-6.07-.477.869-.757 1.863-.757 2.933 0 2.01.987 3.792 2.459 4.823-.89-.017-1.762-.288-2.501-.714v.063c0 2.82 1.919 5.163 4.435 5.702-.45.13-.942.192-1.451.192-.355 0-.713-.022-1.048-.1.717 2.299 2.752 3.988 5.172 4.043-1.884 1.545-4.275 2.475-6.863 2.475-.454 0-.89-.02-1.325-.08C2.452 22.054 5.358 23 8.492 23c10.185 0 15.754-8.846 15.754-16.514 0-.257-.008-.504-.02-.75 1.098-.818 2.021-1.838 2.774-3.013z"/>
</svg>
